<svg width="50" height="50" viewBox="0 0 50 50" fill="none" xmlns="http://www.w3.org/2000/svg">
<circle cx="25" cy="25" r="20" fill="#F4F4F4"/>
<path d="M34.056 36H16.936V13.728H25.608C27.464 13.728 28.9787 14.0587 30.152 14.72C31.304 15.36 32.2 16.2347 32.84 17.344C33.48 18.4533 33.8 19.68 33.8 21.024C33.8 22.688 33.288 24.1813 32.264 25.504C31.24 26.8053 29.9493 27.6693 28.392 28.096L34.056 36ZM18.952 14.912L27.656 27.072C29.0853 26.7733 30.2693 26.0587 31.208 24.928C32.1467 23.7973 32.616 22.496 32.616 21.024C32.616 19.8507 32.328 18.784 31.752 17.824C31.176 16.864 30.3653 16.128 29.32 15.616C28.3813 15.1467 27.1547 14.912 25.64 14.912H18.952ZM18.12 15.68V27.168H26.344L18.12 15.68ZM18.12 34.816H31.816L27.144 28.32L26.152 28.352H18.12V34.816Z" fill="#181818"/>
</svg>
